<svg xmlns="http://www.w3.org/2000/svg" xmlns:xlink="http://www.w3.org/1999/xlink" width="122.002" height="127.438" viewBox="0 0 122.002 127.438">
  <defs>
    <clipPath id="clip-path">
      <rect id="Rectángulo_406242" data-name="Rectángulo 406242" width="111.002" height="124.375" fill="none"/>
    </clipPath>
    <filter id="Trazado_911478">
      <feOffset dy="3" input="SourceAlpha"/>
      <feGaussianBlur stdDeviation="3" result="blur"/>
      <feFlood flood-opacity="0.161" result="color"/>
      <feComposite operator="out" in="SourceGraphic" in2="blur"/>
      <feComposite operator="in" in="color"/>
      <feComposite operator="in" in2="SourceGraphic"/>
    </filter>
    <filter id="Trazado_911479">
      <feOffset dy="3" input="SourceAlpha"/>
      <feGaussianBlur stdDeviation="3" result="blur-2"/>
      <feFlood flood-opacity="0.161" result="color-2"/>
      <feComposite operator="out" in="SourceGraphic" in2="blur-2"/>
      <feComposite operator="in" in="color-2"/>
      <feComposite operator="in" in2="SourceGraphic"/>
    </filter>
    <linearGradient id="linear-gradient" x1="-1.202" y1="1.225" x2="-1.179" y2="1.225" gradientUnits="objectBoundingBox">
      <stop offset="0" stop-color="#f2c846"/>
      <stop offset="1" stop-color="#f28535"/>
    </linearGradient>
    <linearGradient id="linear-gradient-2" x1="-2.09" y1="1.361" x2="-2.067" y2="1.361" gradientUnits="objectBoundingBox">
      <stop offset="0" stop-color="#ff9657"/>
      <stop offset="1" stop-color="#d43420"/>
    </linearGradient>
    <linearGradient id="linear-gradient-3" x1="-0.316" y1="1.16" x2="-0.292" y2="1.16" gradientUnits="objectBoundingBox">
      <stop offset="0" stop-color="#abe66a"/>
      <stop offset="1" stop-color="#82a849"/>
    </linearGradient>
    <filter id="Trazado_911520" x="5.795" y="0" width="52.854" height="124.628" filterUnits="userSpaceOnUse">
      <feOffset dx="3" dy="5" input="SourceAlpha"/>
      <feGaussianBlur stdDeviation="3" result="blur-3"/>
      <feFlood flood-opacity="0.161"/>
      <feComposite operator="in" in2="blur-3"/>
      <feComposite in="SourceGraphic"/>
    </filter>
    <filter id="Trazado_911521" x="36.795" y="31" width="52.854" height="94.628" filterUnits="userSpaceOnUse">
      <feOffset dx="3" dy="5" input="SourceAlpha"/>
      <feGaussianBlur stdDeviation="3" result="blur-4"/>
      <feFlood flood-opacity="0.161"/>
      <feComposite operator="in" in2="blur-4"/>
      <feComposite in="SourceGraphic"/>
    </filter>
    <filter id="Trazado_911522" x="69.147" y="59" width="52.854" height="66.628" filterUnits="userSpaceOnUse">
      <feOffset dx="3" dy="5" input="SourceAlpha"/>
      <feGaussianBlur stdDeviation="3" result="blur-5"/>
      <feFlood flood-opacity="0.161"/>
      <feComposite operator="in" in2="blur-5"/>
      <feComposite in="SourceGraphic"/>
    </filter>
  </defs>
  <g id="Grupo_1114974" data-name="Grupo 1114974" transform="translate(11783.872 11857.562)">
    <g id="Grupo_1114969" data-name="Grupo 1114969" transform="translate(-11783.872 -11854.498)">
      <g id="Grupo_1114025" data-name="Grupo 1114025">
        <g id="Grupo_1114024" data-name="Grupo 1114024" clip-path="url(#clip-path)">
          <g data-type="innerShadowGroup">
            <path id="Trazado_911478-2" data-name="Trazado 911478" d="M97.064,134.876H5.9a5.9,5.9,0,0,1-5.9-5.9V68.639a5.9,5.9,0,0,1,5.9-5.9h91.16a5.9,5.9,0,0,1,5.9,5.9v60.334a5.9,5.9,0,0,1-5.9,5.9" transform="translate(0 -10.501)" fill="#e2e2e2" opacity="0.418"/>
            <g transform="matrix(1, 0, 0, 1, 0, -3.06)" filter="url(#Trazado_911478)">
              <path id="Trazado_911478-3" data-name="Trazado 911478" d="M97.064,134.876H5.9a5.9,5.9,0,0,1-5.9-5.9V68.639a5.9,5.9,0,0,1,5.9-5.9h91.16a5.9,5.9,0,0,1,5.9,5.9v60.334a5.9,5.9,0,0,1-5.9,5.9" transform="translate(0 -7.44)" fill="#fff" opacity="0.418"/>
            </g>
          </g>
          <g data-type="innerShadowGroup">
            <path id="Trazado_911479-2" data-name="Trazado 911479" d="M97.064,62.735H5.9a5.9,5.9,0,0,0-5.9,5.9v37.534L30,77.241,59.066,106.9,80.511,95.264l22.456,12.319V68.638a5.9,5.9,0,0,0-5.9-5.9" transform="translate(0 -10.501)" fill="#c1c1c1" opacity="0.418"/>
            <g transform="matrix(1, 0, 0, 1, 0, -3.06)" filter="url(#Trazado_911479)">
              <path id="Trazado_911479-3" data-name="Trazado 911479" d="M97.064,62.735H5.9a5.9,5.9,0,0,0-5.9,5.9v37.534L30,77.241,59.066,106.9,80.511,95.264l22.456,12.319V68.638a5.9,5.9,0,0,0-5.9-5.9" transform="translate(0 -7.44)" fill="#fff" opacity="0.418"/>
            </g>
          </g>
        </g>
      </g>
      <g id="Grupo_1114029" data-name="Grupo 1114029">
        <g id="Grupo_1114028" data-name="Grupo 1114028" clip-path="url(#clip-path)">
          <path id="Trazado_911481" data-name="Trazado 911481" d="M87.118,61.25h0L69.293,37.713,51.468,61.25H63.62v52.376H74.967V61.25h0v52.376H63.62V61.25H51.468L69.293,37.713,87.118,61.25Z" transform="translate(-8.615 -6.313)" fill="url(#linear-gradient)"/>
        </g>
      </g>
      <g id="Grupo_1114033" data-name="Grupo 1114033">
        <g id="Grupo_1114032" data-name="Grupo 1114032" clip-path="url(#clip-path)">
          <path id="Trazado_911483" data-name="Trazado 911483" d="M125.145,95.709h0L107.321,72.172,89.5,95.709h12.152v23.685h11.346V95.709h0v23.685H101.647V95.709H89.5l17.825-23.537,17.825,23.537Z" transform="translate(-14.98 -12.081)" fill="url(#linear-gradient-2)"/>
        </g>
      </g>
      <g id="Grupo_1114037" data-name="Grupo 1114037">
        <g id="Grupo_1114036" data-name="Grupo 1114036" clip-path="url(#clip-path)">
          <path id="Trazado_911485" data-name="Trazado 911485" d="M49.174,24.365h0L31.349.828,13.524,24.365H25.676v83.087H37.022V24.365h0v83.087H25.676V24.365H13.524L31.349.828,49.174,24.365Z" transform="translate(-2.264 -0.139)" fill="url(#linear-gradient-3)"/>
        </g>
      </g>
    </g>
    <g id="Grupo_1114970" data-name="Grupo 1114970" transform="translate(-12691.333 -12297)">
      <g transform="matrix(1, 0, 0, 1, 907.46, 439.44)" filter="url(#Trazado_911520)">
        <path id="Trazado_911520-2" data-name="Trazado 911520" d="M-11749.387-11057.934v-84.051h12.164l-17.556-22.577-17.3,22.577h12.378v84.051Z" transform="translate(11783.87 11168.56)" fill="#12263f"/>
      </g>
      <g transform="matrix(1, 0, 0, 1, 907.46, 439.44)" filter="url(#Trazado_911521)">
        <path id="Trazado_911521-2" data-name="Trazado 911521" d="M-11749.387-11087.934v-54.051h12.164l-17.556-22.577-17.3,22.577h12.378v54.051Z" transform="translate(11814.87 11199.56)" fill="#ffce79"/>
      </g>
      <g transform="matrix(1, 0, 0, 1, 907.46, 439.44)" filter="url(#Trazado_911522)">
        <path id="Trazado_911522-2" data-name="Trazado 911522" d="M-11749.387-11115.934v-26.051h12.164l-17.556-22.577-17.3,22.577h12.378v26.051Z" transform="translate(11847.22 11227.56)" fill="#f2f2ff"/>
      </g>
    </g>
  </g>
</svg>
