<svg id="Grupo_1100180" data-name="Grupo 1100180" xmlns="http://www.w3.org/2000/svg" width="74.35" height="70.342" viewBox="0 0 74.35 70.342">
  <path id="Trazado_874021" data-name="Trazado 874021" d="M37.175,0C57.706,0,74.35,15.747,74.35,35.171S57.706,70.342,37.175,70.342,0,54.6,0,35.171,16.644,0,37.175,0Z" transform="translate(0 0)" fill="#283f65"/>
  <g id="sitio-web" transform="translate(12.504 14.105)">
    <path id="Trazado_874995" data-name="Trazado 874995" d="M52.64,11.246H10.479A3.592,3.592,0,0,0,6.89,14.841V48.43a3.592,3.592,0,0,0,3.589,3.595H52.642a3.592,3.592,0,0,0,3.589-3.595V14.841a3.592,3.592,0,0,0-3.592-3.595Z" transform="translate(-6.89 -11.246)" fill="#f6f6f6"/>
    <path id="Trazado_874996" data-name="Trazado 874996" d="M52.64,11.246H10.479A3.592,3.592,0,0,0,6.89,14.841v5.951H56.231V14.841a3.592,3.592,0,0,0-3.592-3.595Z" transform="translate(-6.89 -11.246)" fill="#e4d9fd"/>
    <g id="Grupo_1100179" data-name="Grupo 1100179" transform="translate(5.005 21.276)">
      <path id="Trazado_874997" data-name="Trazado 874997" d="M29.949,60.56a.756.756,0,0,0-.988.407l-1.908,4.579-1.908-4.579a.755.755,0,0,0-1.4,0L21.84,65.546l-1.908-4.579a.756.756,0,1,0-1.4.581L21.142,67.8a.756.756,0,0,0,1.4,0l1.911-4.581L26.357,67.8a.755.755,0,0,0,1.4,0l2.606-6.255a.755.755,0,0,0-.409-.986Z" transform="translate(-18.478 -60.502)" fill="#c5c5c5"/>
      <path id="Trazado_874998" data-name="Trazado 874998" d="M61.654,60.56a.756.756,0,0,0-.988.407l-1.909,4.579-1.908-4.579a.755.755,0,0,0-1.4,0l-1.908,4.579-1.909-4.579a.756.756,0,0,0-1.4.582L52.847,67.8a.755.755,0,0,0,1.4,0l1.908-4.581L58.059,67.8a.755.755,0,0,0,1.4,0l2.607-6.255a.756.756,0,0,0-.407-.986Z" transform="translate(-36.487 -60.501)" fill="#c5c5c5"/>
      <path id="Trazado_874999" data-name="Trazado 874999" d="M93.358,60.56a.756.756,0,0,0-.988.407l-1.908,4.579-1.909-4.579a.755.755,0,0,0-1.4,0l-1.908,4.579-1.908-4.579a.756.756,0,1,0-1.4.581L84.552,67.8a.755.755,0,0,0,1.4,0l1.907-4.581L89.762,67.8a.756.756,0,0,0,1.4,0l2.606-6.255a.755.755,0,0,0-.406-.986Z" transform="translate(-54.498 -60.502)" fill="#c5c5c5"/>
    </g>
    <circle id="Elipse_11585" data-name="Elipse 11585" cx="1.695" cy="1.695" r="1.695" transform="translate(3.784 3.075)" fill="#ceff27"/>
    <path id="Trazado_875000" data-name="Trazado 875000" d="M33.084,18.364a1.7,1.7,0,1,0,1.7,1.7,1.7,1.7,0,0,0-1.7-1.7Z" transform="translate(-20.806 -15.289)" fill="#0feeff"/>
    <circle id="Elipse_11586" data-name="Elipse 11586" cx="1.695" cy="1.695" r="1.695" transform="translate(17.381 3.075)" fill="#fe80a7"/>
    <path id="Trazado_875001" data-name="Trazado 875001" d="M27.462,91.189l-4.054,4.055,1.87,1.87,1.87,1.87L31.2,94.93l2.027,2.027,3.69-11.485-11.485,3.69Z" transform="translate(-16.273 -53.41)" fill="#7b40f2"/>
  </g>
</svg>
